<svg width="1024" height="753" viewBox="0 0 1024 753" fill="none" xmlns="http://www.w3.org/2000/svg">
<g clip-path="url(#clip0_122_130)">
<rect width="1024" height="753" fill="#121214"/>
<g opacity="0.2" filter="url(#filter0_f_122_130)">
<ellipse cx="513.5" cy="25" rx="670.5" ry="350" fill="#338AF3"/>
</g>
<path d="M34.0349 261C35.5302 261 36.6622 261.63 37.4308 262.891C38.2134 264.138 38.6047 265.953 38.6047 268.336C38.6047 270.719 38.2134 272.541 37.4308 273.802C36.6622 275.063 35.5302 275.693 34.0349 275.693C32.5536 275.693 31.4216 275.063 30.639 273.802C29.8564 272.541 29.4651 270.719 29.4651 268.336C29.4651 265.967 29.8564 264.152 30.639 262.891C31.4216 261.63 32.5536 261 34.0349 261ZM30.9534 268.336C30.9534 270.026 31.1072 271.35 31.4146 272.306L36.0683 263.099C35.5791 262.448 34.9013 262.122 34.0349 262.122C33.0706 262.122 32.316 262.635 31.771 263.66C31.2259 264.672 30.9534 266.23 30.9534 268.336ZM34.0349 274.55C35.0131 274.55 35.7748 274.044 36.3198 273.033C36.8648 272.008 37.1373 270.442 37.1373 268.336C37.1373 266.549 36.9627 265.163 36.6133 264.18L31.9596 273.469C32.4627 274.19 33.1545 274.55 34.0349 274.55Z" fill="url(#paint0_linear_122_130)" fill-opacity="0.6"/>
<path d="M35.2926 298.135H38.3741V299.236H30.3874V298.135H33.9511V286.455L30.5551 288.471L29.9682 287.536L34.1607 284.959H35.2926V298.135Z" fill="url(#paint1_linear_122_130)" fill-opacity="0.6"/>
<path d="M34.0349 308.502C35.5302 308.502 36.6622 309.133 37.4308 310.393C38.2134 311.64 38.6047 313.455 38.6047 315.838C38.6047 318.221 38.2134 320.043 37.4308 321.304C36.6622 322.565 35.5302 323.195 34.0349 323.195C32.5536 323.195 31.4216 322.565 30.639 321.304C29.8564 320.043 29.4651 318.221 29.4651 315.838C29.4651 313.469 29.8564 311.654 30.639 310.393C31.4216 309.133 32.5536 308.502 34.0349 308.502ZM30.9534 315.838C30.9534 317.529 31.1072 318.852 31.4146 319.808L36.0683 310.601C35.5791 309.95 34.9013 309.624 34.0349 309.624C33.0706 309.624 32.316 310.137 31.771 311.162C31.2259 312.174 30.9534 313.732 30.9534 315.838ZM34.0349 322.052C35.0131 322.052 35.7748 321.546 36.3198 320.535C36.8648 319.51 37.1373 317.944 37.1373 315.838C37.1373 314.051 36.9627 312.665 36.6133 311.682L31.9596 320.971C32.4627 321.692 33.1545 322.052 34.0349 322.052Z" fill="url(#paint2_linear_122_130)" fill-opacity="0.6"/>
<path d="M35.2926 345.637H38.3741V346.738H30.3874V345.637H33.9511V333.957L30.5551 335.973L29.9682 335.038L34.1607 332.461H35.2926V345.637Z" fill="url(#paint3_linear_122_130)" fill-opacity="0.6"/>
<path d="M35.2926 369.388H38.3741V370.489H30.3874V369.388H33.9511V357.708L30.5551 359.724L29.9682 358.789L34.1607 356.212H35.2926V369.388Z" fill="url(#paint4_linear_122_130)" fill-opacity="0.6"/>
<path d="M34.0349 379.755C35.5302 379.755 36.6622 380.386 37.4308 381.646C38.2134 382.893 38.6047 384.708 38.6047 387.091C38.6047 389.474 38.2134 391.296 37.4308 392.557C36.6622 393.818 35.5302 394.448 34.0349 394.448C32.5536 394.448 31.4216 393.818 30.639 392.557C29.8564 391.296 29.4651 389.474 29.4651 387.091C29.4651 384.722 29.8564 382.907 30.639 381.646C31.4216 380.386 32.5536 379.755 34.0349 379.755ZM30.9534 387.091C30.9534 388.782 31.1072 390.105 31.4146 391.061L36.0683 381.854C35.5791 381.203 34.9013 380.878 34.0349 380.878C33.0706 380.878 32.316 381.39 31.771 382.415C31.2259 383.427 30.9534 384.985 30.9534 387.091ZM34.0349 393.305C35.0131 393.305 35.7748 392.8 36.3198 391.788C36.8648 390.763 37.1373 389.197 37.1373 387.091C37.1373 385.304 36.9627 383.919 36.6133 382.935L31.9596 392.225C32.4627 392.945 33.1545 393.305 34.0349 393.305Z" fill="url(#paint5_linear_122_130)" fill-opacity="0.6"/>
<path d="M35.2926 416.89H38.3741V417.992H30.3874V416.89H33.9511V405.21L30.5551 407.226L29.9682 406.291L34.1607 403.714H35.2926V416.89Z" fill="url(#paint6_linear_122_130)" fill-opacity="0.6"/>
<path d="M34.0349 427.257C35.5302 427.257 36.6622 427.888 37.4308 429.149C38.2134 430.396 38.6047 432.211 38.6047 434.594C38.6047 436.977 38.2134 438.798 37.4308 440.059C36.6622 441.32 35.5302 441.95 34.0349 441.95C32.5536 441.95 31.4216 441.32 30.639 440.059C29.8564 438.798 29.4651 436.977 29.4651 434.594C29.4651 432.224 29.8564 430.409 30.639 429.149C31.4216 427.888 32.5536 427.257 34.0349 427.257ZM30.9534 434.594C30.9534 436.284 31.1072 437.607 31.4146 438.563L36.0683 429.356C35.5791 428.705 34.9013 428.38 34.0349 428.38C33.0706 428.38 32.316 428.892 31.771 429.918C31.2259 430.929 30.9534 432.488 30.9534 434.594ZM34.0349 440.807C35.0131 440.807 35.7748 440.302 36.3198 439.29C36.8648 438.265 37.1373 436.699 37.1373 434.594C37.1373 432.806 36.9627 431.421 36.6133 430.437L31.9596 439.727C32.4627 440.447 33.1545 440.807 34.0349 440.807Z" fill="url(#paint7_linear_122_130)" fill-opacity="0.6"/>
<path d="M34.0349 451.008C35.5302 451.008 36.6622 451.639 37.4308 452.9C38.2134 454.147 38.6047 455.962 38.6047 458.345C38.6047 460.728 38.2134 462.549 37.4308 463.81C36.6622 465.071 35.5302 465.701 34.0349 465.701C32.5536 465.701 31.4216 465.071 30.639 463.81C29.8564 462.549 29.4651 460.728 29.4651 458.345C29.4651 455.975 29.8564 454.16 30.639 452.9C31.4216 451.639 32.5536 451.008 34.0349 451.008ZM30.9534 458.345C30.9534 460.035 31.1072 461.358 31.4146 462.314L36.0683 453.107C35.5791 452.456 34.9013 452.131 34.0349 452.131C33.0706 452.131 32.316 452.643 31.771 453.669C31.2259 454.68 30.9534 456.239 30.9534 458.345ZM34.0349 464.558C35.0131 464.558 35.7748 464.053 36.3198 463.041C36.8648 462.016 37.1373 460.451 37.1373 458.345C37.1373 456.557 36.9627 455.172 36.6133 454.188L31.9596 463.478C32.4627 464.198 33.1545 464.558 34.0349 464.558Z" fill="url(#paint8_linear_122_130)" fill-opacity="0.6"/>
<path d="M35.2926 488.143H38.3741V489.245H30.3874V488.143H33.9511V476.464L30.5551 478.48L29.9682 477.544L34.1607 474.967H35.2926V488.143Z" fill="url(#paint9_linear_122_130)" fill-opacity="0.6"/>
<path d="M34.0349 498.511C35.5302 498.511 36.6622 499.141 37.4308 500.402C38.2134 501.649 38.6047 503.464 38.6047 505.847C38.6047 508.23 38.2134 510.052 37.4308 511.312C36.6622 512.573 35.5302 513.204 34.0349 513.204C32.5536 513.204 31.4216 512.573 30.639 511.312C29.8564 510.052 29.4651 508.23 29.4651 505.847C29.4651 503.478 29.8564 501.663 30.639 500.402C31.4216 499.141 32.5536 498.511 34.0349 498.511ZM30.9534 505.847C30.9534 507.537 31.1072 508.86 31.4146 509.816L36.0683 500.61C35.5791 499.958 34.9013 499.633 34.0349 499.633C33.0706 499.633 32.316 500.145 31.771 501.171C31.2259 502.182 30.9534 503.741 30.9534 505.847ZM34.0349 512.061C35.0131 512.061 35.7748 511.555 36.3198 510.543C36.8648 509.518 37.1373 507.953 37.1373 505.847C37.1373 504.059 36.9627 502.674 36.6133 501.69L31.9596 510.98C32.4627 511.7 33.1545 512.061 34.0349 512.061Z" fill="url(#paint10_linear_122_130)" fill-opacity="0.6"/>
<path d="M35.2926 535.645H38.3741V536.747H30.3874V535.645H33.9511V523.966L30.5551 525.982L29.9682 525.046L34.1607 522.469H35.2926V535.645Z" fill="url(#paint11_linear_122_130)" fill-opacity="0.6"/>
<path d="M35.2926 559.396H38.3741V560.498H30.3874V559.396H33.9511V547.717L30.5551 549.733L29.9682 548.798L34.1607 546.221H35.2926V559.396Z" fill="url(#paint12_linear_122_130)" fill-opacity="0.6"/>
<path d="M72.9651 308.502C74.4604 308.502 75.5924 309.133 76.361 310.393C77.1436 311.64 77.5349 313.455 77.5349 315.838C77.5349 318.221 77.1436 320.043 76.361 321.304C75.5924 322.565 74.4604 323.195 72.9651 323.195C71.4838 323.195 70.3518 322.565 69.5692 321.304C68.7866 320.043 68.3953 318.221 68.3953 315.838C68.3953 313.469 68.7866 311.654 69.5692 310.393C70.3518 309.133 71.4838 308.502 72.9651 308.502ZM69.8836 315.838C69.8836 317.529 70.0374 318.852 70.3448 319.808L74.9985 310.601C74.5093 309.95 73.8315 309.624 72.9651 309.624C72.0008 309.624 71.2462 310.137 70.7012 311.162C70.1561 312.174 69.8836 313.732 69.8836 315.838ZM72.9651 322.052C73.9433 322.052 74.705 321.546 75.25 320.535C75.795 319.51 76.0675 317.944 76.0675 315.838C76.0675 314.051 75.8928 312.665 75.5435 311.682L70.8898 320.971C71.3929 321.692 72.0847 322.052 72.9651 322.052Z" fill="url(#paint13_linear_122_130)" fill-opacity="0.6"/>
<path d="M74.2228 345.637H77.3043V346.738H69.3176V345.637H72.8812V333.957L69.4853 335.973L68.8984 335.038L73.0909 332.461H74.2228V345.637Z" fill="url(#paint14_linear_122_130)" fill-opacity="0.6"/>
<path d="M72.9651 356.004C74.4604 356.004 75.5924 356.635 76.361 357.895C77.1436 359.142 77.5349 360.957 77.5349 363.34C77.5349 365.723 77.1436 367.545 76.361 368.806C75.5924 370.067 74.4604 370.697 72.9651 370.697C71.4838 370.697 70.3518 370.067 69.5692 368.806C68.7866 367.545 68.3953 365.723 68.3953 363.34C68.3953 360.971 68.7866 359.156 69.5692 357.895C70.3518 356.635 71.4838 356.004 72.9651 356.004ZM69.8836 363.34C69.8836 365.031 70.0374 366.354 70.3448 367.31L74.9985 358.103C74.5093 357.452 73.8315 357.126 72.9651 357.126C72.0008 357.126 71.2462 357.639 70.7012 358.664C70.1561 359.676 69.8836 361.234 69.8836 363.34ZM72.9651 369.554C73.9433 369.554 74.705 369.049 75.25 368.037C75.795 367.012 76.0675 365.446 76.0675 363.34C76.0675 361.553 75.8928 360.168 75.5435 359.184L70.8898 368.474C71.3929 369.194 72.0847 369.554 72.9651 369.554Z" fill="url(#paint15_linear_122_130)" fill-opacity="0.6"/>
<path d="M72.9651 379.755C74.4604 379.755 75.5924 380.386 76.361 381.646C77.1436 382.893 77.5349 384.708 77.5349 387.091C77.5349 389.474 77.1436 391.296 76.361 392.557C75.5924 393.818 74.4604 394.448 72.9651 394.448C71.4838 394.448 70.3518 393.818 69.5692 392.557C68.7866 391.296 68.3953 389.474 68.3953 387.091C68.3953 384.722 68.7866 382.907 69.5692 381.646C70.3518 380.386 71.4838 379.755 72.9651 379.755ZM69.8836 387.091C69.8836 388.782 70.0374 390.105 70.3448 391.061L74.9985 381.854C74.5093 381.203 73.8315 380.878 72.9651 380.878C72.0008 380.878 71.2462 381.39 70.7012 382.415C70.1561 383.427 69.8836 384.985 69.8836 387.091ZM72.9651 393.305C73.9433 393.305 74.705 392.8 75.25 391.788C75.795 390.763 76.0675 389.197 76.0675 387.091C76.0675 385.304 75.8928 383.919 75.5435 382.935L70.8898 392.225C71.3929 392.945 72.0847 393.305 72.9651 393.305Z" fill="url(#paint16_linear_122_130)" fill-opacity="0.6"/>
<path d="M74.2228 416.89H77.3043V417.992H69.3176V416.89H72.8812V405.21L69.4853 407.226L68.8984 406.291L73.0909 403.714H74.2228V416.89Z" fill="url(#paint17_linear_122_130)" fill-opacity="0.6"/>
<path d="M72.9651 427.257C74.4604 427.257 75.5924 427.888 76.361 429.149C77.1436 430.396 77.5349 432.211 77.5349 434.594C77.5349 436.977 77.1436 438.798 76.361 440.059C75.5924 441.32 74.4604 441.95 72.9651 441.95C71.4838 441.95 70.3518 441.32 69.5692 440.059C68.7866 438.798 68.3953 436.977 68.3953 434.594C68.3953 432.224 68.7866 430.409 69.5692 429.149C70.3518 427.888 71.4838 427.257 72.9651 427.257ZM69.8836 434.594C69.8836 436.284 70.0374 437.607 70.3448 438.563L74.9985 429.356C74.5093 428.705 73.8315 428.38 72.9651 428.38C72.0008 428.38 71.2462 428.892 70.7012 429.918C70.1561 430.929 69.8836 432.488 69.8836 434.594ZM72.9651 440.807C73.9433 440.807 74.705 440.302 75.25 439.29C75.795 438.265 76.0675 436.699 76.0675 434.594C76.0675 432.806 75.8928 431.421 75.5435 430.437L70.8898 439.727C71.3929 440.447 72.0847 440.807 72.9651 440.807Z" fill="url(#paint18_linear_122_130)" fill-opacity="0.6"/>
<path d="M74.2228 464.392H77.3043V465.494H69.3176V464.392H72.8812V452.713L69.4853 454.728L68.8984 453.793L73.0909 451.216H74.2228V464.392Z" fill="url(#paint19_linear_122_130)" fill-opacity="0.6"/>
<path d="M72.9651 474.76C74.4604 474.76 75.5924 475.39 76.361 476.651C77.1436 477.898 77.5349 479.713 77.5349 482.096C77.5349 484.479 77.1436 486.301 76.361 487.561C75.5924 488.822 74.4604 489.453 72.9651 489.453C71.4838 489.453 70.3518 488.822 69.5692 487.561C68.7866 486.301 68.3953 484.479 68.3953 482.096C68.3953 479.726 68.7866 477.911 69.5692 476.651C70.3518 475.39 71.4838 474.76 72.9651 474.76ZM69.8836 482.096C69.8836 483.786 70.0374 485.109 70.3448 486.065L74.9985 476.859C74.5093 476.207 73.8315 475.882 72.9651 475.882C72.0008 475.882 71.2462 476.394 70.7012 477.42C70.1561 478.431 69.8836 479.99 69.8836 482.096ZM72.9651 488.31C73.9433 488.31 74.705 487.804 75.25 486.792C75.795 485.767 76.0675 484.202 76.0675 482.096C76.0675 480.308 75.8928 478.923 75.5435 477.939L70.8898 487.229C71.3929 487.949 72.0847 488.31 72.9651 488.31Z" fill="url(#paint20_linear_122_130)" fill-opacity="0.6"/>
<path d="M72.9651 498.511C74.4604 498.511 75.5924 499.141 76.361 500.402C77.1436 501.649 77.5349 503.464 77.5349 505.847C77.5349 508.23 77.1436 510.052 76.361 511.312C75.5924 512.573 74.4604 513.204 72.9651 513.204C71.4838 513.204 70.3518 512.573 69.5692 511.312C68.7866 510.052 68.3953 508.23 68.3953 505.847C68.3953 503.478 68.7866 501.663 69.5692 500.402C70.3518 499.141 71.4838 498.511 72.9651 498.511ZM69.8836 505.847C69.8836 507.537 70.0374 508.86 70.3448 509.816L74.9985 500.61C74.5093 499.958 73.8315 499.633 72.9651 499.633C72.0008 499.633 71.2462 500.145 70.7012 501.171C70.1561 502.182 69.8836 503.741 69.8836 505.847ZM72.9651 512.061C73.9433 512.061 74.705 511.555 75.25 510.543C75.795 509.518 76.0675 507.953 76.0675 505.847C76.0675 504.059 75.8928 502.674 75.5435 501.69L70.8898 510.98C71.3929 511.7 72.0847 512.061 72.9651 512.061Z" fill="url(#paint21_linear_122_130)" fill-opacity="0.6"/>
<path d="M74.2228 535.645H77.3043V536.747H69.3176V535.645H72.8812V523.966L69.4853 525.982L68.8984 525.046L73.0909 522.469H74.2228V535.645Z" fill="url(#paint22_linear_122_130)" fill-opacity="0.6"/>
<path d="M72.9651 546.013C74.4604 546.013 75.5924 546.643 76.361 547.904C77.1436 549.151 77.5349 550.966 77.5349 553.349C77.5349 555.732 77.1436 557.554 76.361 558.815C75.5924 560.075 74.4604 560.706 72.9651 560.706C71.4838 560.706 70.3518 560.075 69.5692 558.815C68.7866 557.554 68.3953 555.732 68.3953 553.349C68.3953 550.98 68.7866 549.165 69.5692 547.904C70.3518 546.643 71.4838 546.013 72.9651 546.013ZM69.8836 553.349C69.8836 555.039 70.0374 556.362 70.3448 557.318L74.9985 548.112C74.5093 547.461 73.8315 547.135 72.9651 547.135C72.0008 547.135 71.2462 547.648 70.7012 548.673C70.1561 549.684 69.8836 551.243 69.8836 553.349ZM72.9651 559.563C73.9433 559.563 74.705 559.057 75.25 558.046C75.795 557.02 76.0675 555.455 76.0675 553.349C76.0675 551.562 75.8928 550.176 75.5435 549.192L70.8898 558.482C71.3929 559.202 72.0847 559.563 72.9651 559.563Z" fill="url(#paint23_linear_122_130)" fill-opacity="0.6"/>
<path d="M74.2228 583.147H77.3043V584.249H69.3176V583.147H72.8812V571.468L69.4853 573.484L68.8984 572.549L73.0909 569.972H74.2228V583.147Z" fill="url(#paint24_linear_122_130)" fill-opacity="0.6"/>
<path d="M74.2228 606.899H77.3043V608H69.3176V606.899H72.8812V595.219L69.4853 597.235L68.8984 596.3L73.0909 593.723H74.2228V606.899Z" fill="url(#paint25_linear_122_130)" fill-opacity="0.6"/>
<path d="M14.5698 332.253C16.0651 332.253 17.1971 332.884 17.9657 334.144C18.7483 335.391 19.1396 337.206 19.1396 339.589C19.1396 341.972 18.7483 343.794 17.9657 345.055C17.1971 346.316 16.0651 346.946 14.5698 346.946C13.0885 346.946 11.9565 346.316 11.1739 345.055C10.3913 343.794 10 341.972 10 339.589C10 337.22 10.3913 335.405 11.1739 334.144C11.9565 332.884 13.0885 332.253 14.5698 332.253ZM11.4883 339.589C11.4883 341.28 11.6421 342.603 11.9495 343.559L16.6032 334.352C16.114 333.701 15.4363 333.375 14.5698 333.375C13.6055 333.375 12.8509 333.888 12.3059 334.913C11.7608 335.925 11.4883 337.483 11.4883 339.589ZM14.5698 345.803C15.5481 345.803 16.3097 345.297 16.8547 344.286C17.3997 343.261 17.6722 341.695 17.6722 339.589C17.6722 337.802 17.4976 336.417 17.1482 335.433L12.4945 344.722C12.9976 345.443 13.6894 345.803 14.5698 345.803Z" fill="url(#paint26_linear_122_130)" fill-opacity="0.6"/>
<path d="M14.5698 356.004C16.0651 356.004 17.1971 356.635 17.9657 357.895C18.7483 359.142 19.1396 360.957 19.1396 363.34C19.1396 365.723 18.7483 367.545 17.9657 368.806C17.1971 370.067 16.0651 370.697 14.5698 370.697C13.0885 370.697 11.9565 370.067 11.1739 368.806C10.3913 367.545 10 365.723 10 363.34C10 360.971 10.3913 359.156 11.1739 357.895C11.9565 356.635 13.0885 356.004 14.5698 356.004ZM11.4883 363.34C11.4883 365.031 11.6421 366.354 11.9495 367.31L16.6032 358.103C16.114 357.452 15.4363 357.126 14.5698 357.126C13.6055 357.126 12.8509 357.639 12.3059 358.664C11.7608 359.676 11.4883 361.234 11.4883 363.34ZM14.5698 369.554C15.5481 369.554 16.3097 369.049 16.8547 368.037C17.3997 367.012 17.6722 365.446 17.6722 363.34C17.6722 361.553 17.4976 360.168 17.1482 359.184L12.4945 368.474C12.9976 369.194 13.6894 369.554 14.5698 369.554Z" fill="url(#paint27_linear_122_130)" fill-opacity="0.6"/>
<path d="M15.8276 393.139H18.909V394.24H10.9223V393.139H14.486V381.459L11.09 383.475L10.5031 382.54L14.6956 379.963H15.8276V393.139Z" fill="url(#paint28_linear_122_130)" fill-opacity="0.6"/>
<path d="M14.5698 403.506C16.0651 403.506 17.1971 404.137 17.9657 405.398C18.7483 406.644 19.1396 408.459 19.1396 410.842C19.1396 413.225 18.7483 415.047 17.9657 416.308C17.1971 417.569 16.0651 418.199 14.5698 418.199C13.0885 418.199 11.9565 417.569 11.1739 416.308C10.3913 415.047 10 413.225 10 410.842C10 408.473 10.3913 406.658 11.1739 405.398C11.9565 404.137 13.0885 403.506 14.5698 403.506ZM11.4883 410.842C11.4883 412.533 11.6421 413.856 11.9495 414.812L16.6032 405.605C16.114 404.954 15.4363 404.629 14.5698 404.629C13.6055 404.629 12.8509 405.141 12.3059 406.166C11.7608 407.178 11.4883 408.737 11.4883 410.842ZM14.5698 417.056C15.5481 417.056 16.3097 416.551 16.8547 415.539C17.3997 414.514 17.6722 412.948 17.6722 410.842C17.6722 409.055 17.4976 407.67 17.1482 406.686L12.4945 415.976C12.9976 416.696 13.6894 417.056 14.5698 417.056Z" fill="url(#paint29_linear_122_130)" fill-opacity="0.6"/>
<path d="M15.8276 440.641H18.909V441.743H10.9223V440.641H14.486V428.962L11.09 430.977L10.5031 430.042L14.6956 427.465H15.8276V440.641Z" fill="url(#paint30_linear_122_130)" fill-opacity="0.6"/>
<path d="M15.8276 464.392H18.909V465.494H10.9223V464.392H14.486V452.713L11.09 454.728L10.5031 453.793L14.6956 451.216H15.8276V464.392Z" fill="url(#paint31_linear_122_130)" fill-opacity="0.6"/>
<path d="M54.7577 298.135H57.8392V299.236H49.8525V298.135H53.4162V286.455L50.0202 288.471L49.4333 287.536L53.6258 284.959H54.7577V298.135Z" fill="url(#paint32_linear_122_130)" fill-opacity="0.6"/>
<path d="M53.5 308.502C54.9953 308.502 56.1273 309.133 56.8959 310.393C57.6785 311.64 58.0698 313.455 58.0698 315.838C58.0698 318.221 57.6785 320.043 56.8959 321.304C56.1273 322.565 54.9953 323.195 53.5 323.195C52.0187 323.195 50.8867 322.565 50.1041 321.304C49.3215 320.043 48.9302 318.221 48.9302 315.838C48.9302 313.469 49.3215 311.654 50.1041 310.393C50.8867 309.133 52.0187 308.502 53.5 308.502ZM50.4185 315.838C50.4185 317.529 50.5723 318.852 50.8797 319.808L55.5334 310.601C55.0442 309.95 54.3664 309.624 53.5 309.624C52.5357 309.624 51.7811 310.137 51.2361 311.162C50.691 312.174 50.4185 313.732 50.4185 315.838ZM53.5 322.052C54.4782 322.052 55.2399 321.546 55.7849 320.535C56.3299 319.51 56.6024 317.944 56.6024 315.838C56.6024 314.051 56.4277 312.665 56.0784 311.682L51.4247 320.971C51.9278 321.692 52.6196 322.052 53.5 322.052Z" fill="url(#paint33_linear_122_130)" fill-opacity="0.6"/>
<path d="M54.7577 345.637H57.8392V346.738H49.8525V345.637H53.4162V333.957L50.0202 335.973L49.4333 335.038L53.6258 332.461H54.7577V345.637Z" fill="url(#paint34_linear_122_130)" fill-opacity="0.6"/>
<path d="M54.7577 369.388H57.8392V370.489H49.8525V369.388H53.4162V357.708L50.0202 359.724L49.4333 358.789L53.6258 356.212H54.7577V369.388Z" fill="url(#paint35_linear_122_130)" fill-opacity="0.6"/>
<path d="M53.5 379.755C54.9953 379.755 56.1273 380.386 56.8959 381.646C57.6785 382.893 58.0698 384.708 58.0698 387.091C58.0698 389.474 57.6785 391.296 56.8959 392.557C56.1273 393.818 54.9953 394.448 53.5 394.448C52.0187 394.448 50.8867 393.818 50.1041 392.557C49.3215 391.296 48.9302 389.474 48.9302 387.091C48.9302 384.722 49.3215 382.907 50.1041 381.646C50.8867 380.386 52.0187 379.755 53.5 379.755ZM50.4185 387.091C50.4185 388.782 50.5723 390.105 50.8797 391.061L55.5334 381.854C55.0442 381.203 54.3664 380.878 53.5 380.878C52.5357 380.878 51.7811 381.39 51.2361 382.415C50.691 383.427 50.4185 384.985 50.4185 387.091ZM53.5 393.305C54.4782 393.305 55.2399 392.8 55.7849 391.788C56.3299 390.763 56.6024 389.197 56.6024 387.091C56.6024 385.304 56.4277 383.919 56.0784 382.935L51.4247 392.225C51.9278 392.945 52.6196 393.305 53.5 393.305Z" fill="url(#paint36_linear_122_130)" fill-opacity="0.6"/>
<path d="M54.7577 416.89H57.8392V417.992H49.8525V416.89H53.4162V405.21L50.0202 407.226L49.4333 406.291L53.6258 403.714H54.7577V416.89Z" fill="url(#paint37_linear_122_130)" fill-opacity="0.6"/>
<path d="M54.7577 440.641H57.8392V441.743H49.8525V440.641H53.4162V428.962L50.0202 430.977L49.4333 430.042L53.6258 427.465H54.7577V440.641Z" fill="url(#paint38_linear_122_130)" fill-opacity="0.6"/>
<path d="M53.5 451.008C54.9953 451.008 56.1273 451.639 56.8959 452.9C57.6785 454.147 58.0698 455.962 58.0698 458.345C58.0698 460.728 57.6785 462.549 56.8959 463.81C56.1273 465.071 54.9953 465.701 53.5 465.701C52.0187 465.701 50.8867 465.071 50.1041 463.81C49.3215 462.549 48.9302 460.728 48.9302 458.345C48.9302 455.975 49.3215 454.16 50.1041 452.9C50.8867 451.639 52.0187 451.008 53.5 451.008ZM50.4185 458.345C50.4185 460.035 50.5723 461.358 50.8797 462.314L55.5334 453.107C55.0442 452.456 54.3664 452.131 53.5 452.131C52.5357 452.131 51.7811 452.643 51.2361 453.669C50.691 454.68 50.4185 456.239 50.4185 458.345ZM53.5 464.558C54.4782 464.558 55.2399 464.053 55.7849 463.041C56.3299 462.016 56.6024 460.451 56.6024 458.345C56.6024 456.557 56.4277 455.172 56.0784 454.188L51.4247 463.478C51.9278 464.198 52.6196 464.558 53.5 464.558Z" fill="url(#paint39_linear_122_130)" fill-opacity="0.6"/>
<path d="M54.7577 488.143H57.8392V489.245H49.8525V488.143H53.4162V476.464L50.0202 478.48L49.4333 477.544L53.6258 474.967H54.7577V488.143Z" fill="url(#paint40_linear_122_130)" fill-opacity="0.6"/>
<path d="M53.5 498.511C54.9953 498.511 56.1273 499.141 56.8959 500.402C57.6785 501.649 58.0698 503.464 58.0698 505.847C58.0698 508.23 57.6785 510.052 56.8959 511.312C56.1273 512.573 54.9953 513.204 53.5 513.204C52.0187 513.204 50.8867 512.573 50.1041 511.312C49.3215 510.052 48.9302 508.23 48.9302 505.847C48.9302 503.478 49.3215 501.663 50.1041 500.402C50.8867 499.141 52.0187 498.511 53.5 498.511ZM50.4185 505.847C50.4185 507.537 50.5723 508.86 50.8797 509.816L55.5334 500.61C55.0442 499.958 54.3664 499.633 53.5 499.633C52.5357 499.633 51.7811 500.145 51.2361 501.171C50.691 502.182 50.4185 503.741 50.4185 505.847ZM53.5 512.061C54.4782 512.061 55.2399 511.555 55.7849 510.543C56.3299 509.518 56.6024 507.953 56.6024 505.847C56.6024 504.059 56.4277 502.674 56.0784 501.69L51.4247 510.98C51.9278 511.7 52.6196 512.061 53.5 512.061Z" fill="url(#paint41_linear_122_130)" fill-opacity="0.6"/>
<path d="M92.4302 284.751C93.9255 284.751 95.0575 285.381 95.8261 286.642C96.6087 287.889 97 289.704 97 292.087C97 294.47 96.6087 296.292 95.8261 297.553C95.0575 298.814 93.9255 299.444 92.4302 299.444C90.9489 299.444 89.8169 298.814 89.0343 297.553C88.2517 296.292 87.8604 294.47 87.8604 292.087C87.8604 289.718 88.2517 287.903 89.0343 286.642C89.8169 285.381 90.9489 284.751 92.4302 284.751ZM89.3487 292.087C89.3487 293.777 89.5024 295.101 89.8099 296.057L94.4636 286.85C93.9744 286.199 93.2966 285.873 92.4302 285.873C91.4659 285.873 90.7113 286.386 90.1663 287.411C89.6212 288.423 89.3487 289.981 89.3487 292.087ZM92.4302 298.301C93.4084 298.301 94.1701 297.795 94.7151 296.784C95.2601 295.759 95.5326 294.193 95.5326 292.087C95.5326 290.3 95.3579 288.914 95.0086 287.931L90.3549 297.22C90.858 297.941 91.5498 298.301 92.4302 298.301Z" fill="url(#paint42_linear_122_130)" fill-opacity="0.6"/>
<path d="M93.6879 321.886H96.7694V322.987H88.7827V321.886H92.3463V310.206L88.9504 312.222L88.3635 311.287L92.556 308.71H93.6879V321.886Z" fill="url(#paint43_linear_122_130)" fill-opacity="0.6"/>
<path d="M93.6879 345.637H96.7694V346.738H88.7827V345.637H92.3463V333.957L88.9504 335.973L88.3635 335.038L92.556 332.461H93.6879V345.637Z" fill="url(#paint44_linear_122_130)" fill-opacity="0.6"/>
<path d="M92.4302 356.004C93.9255 356.004 95.0575 356.635 95.8261 357.895C96.6087 359.142 97 360.957 97 363.34C97 365.723 96.6087 367.545 95.8261 368.806C95.0575 370.067 93.9255 370.697 92.4302 370.697C90.9489 370.697 89.8169 370.067 89.0343 368.806C88.2517 367.545 87.8604 365.723 87.8604 363.34C87.8604 360.971 88.2517 359.156 89.0343 357.895C89.8169 356.635 90.9489 356.004 92.4302 356.004ZM89.3487 363.34C89.3487 365.031 89.5024 366.354 89.8099 367.31L94.4636 358.103C93.9744 357.452 93.2966 357.126 92.4302 357.126C91.4659 357.126 90.7113 357.639 90.1663 358.664C89.6212 359.676 89.3487 361.234 89.3487 363.34ZM92.4302 369.554C93.4084 369.554 94.1701 369.049 94.7151 368.037C95.2601 367.012 95.5326 365.446 95.5326 363.34C95.5326 361.553 95.3579 360.168 95.0086 359.184L90.3549 368.474C90.858 369.194 91.5498 369.554 92.4302 369.554Z" fill="url(#paint45_linear_122_130)" fill-opacity="0.6"/>
<path d="M92.4302 379.755C93.9255 379.755 95.0575 380.386 95.8261 381.646C96.6087 382.893 97 384.708 97 387.091C97 389.474 96.6087 391.296 95.8261 392.557C95.0575 393.818 93.9255 394.448 92.4302 394.448C90.9489 394.448 89.8169 393.818 89.0343 392.557C88.2517 391.296 87.8604 389.474 87.8604 387.091C87.8604 384.722 88.2517 382.907 89.0343 381.646C89.8169 380.386 90.9489 379.755 92.4302 379.755ZM89.3487 387.091C89.3487 388.782 89.5024 390.105 89.8099 391.061L94.4636 381.854C93.9744 381.203 93.2966 380.878 92.4302 380.878C91.4659 380.878 90.7113 381.39 90.1663 382.415C89.6212 383.427 89.3487 384.985 89.3487 387.091ZM92.4302 393.305C93.4084 393.305 94.1701 392.8 94.7151 391.788C95.2601 390.763 95.5326 389.197 95.5326 387.091C95.5326 385.304 95.3579 383.919 95.0086 382.935L90.3549 392.225C90.858 392.945 91.5498 393.305 92.4302 393.305Z" fill="url(#paint46_linear_122_130)" fill-opacity="0.6"/>
<g opacity="0.6">
<path d="M920.93 -39C922.356 -39 923.436 -38.395 924.17 -37.1851C924.916 -35.9885 925.29 -34.2468 925.29 -31.9599C925.29 -29.673 924.916 -27.9246 924.17 -26.7147C923.436 -25.5048 922.356 -24.8998 920.93 -24.8998C919.517 -24.8998 918.437 -25.5048 917.69 -26.7147C916.943 -27.9246 916.57 -29.673 916.57 -31.9599C916.57 -34.2335 916.943 -35.9752 917.69 -37.1851C918.437 -38.395 919.517 -39 920.93 -39ZM917.99 -31.9599C917.99 -30.3378 918.137 -29.068 918.43 -28.1506L922.87 -36.9857C922.403 -37.6106 921.756 -37.923 920.93 -37.923C920.01 -37.923 919.29 -37.4311 918.77 -36.4472C918.25 -35.4766 917.99 -33.9808 917.99 -31.9599ZM920.93 -25.9967C921.863 -25.9967 922.59 -26.482 923.11 -27.4526C923.63 -28.4365 923.89 -29.9389 923.89 -31.9599C923.89 -33.675 923.723 -35.0046 923.39 -35.9486L918.95 -27.0338C919.43 -26.3424 920.09 -25.9967 920.93 -25.9967Z" fill="url(#paint47_linear_122_130)"/>
<path d="M922.13 -3.36345H925.07V-2.30644H917.45V-3.36345H920.85V-14.5718L917.61 -12.6373L917.05 -13.5347L921.05 -16.0078H922.13V-3.36345Z" fill="url(#paint48_linear_122_130)"/>
<path d="M920.93 6.58561C922.356 6.58561 923.436 7.19057 924.17 8.40049C924.916 9.59711 925.29 11.3389 925.29 13.6257C925.29 15.9126 924.916 17.661 924.17 18.8709C923.436 20.0808 922.356 20.6858 920.93 20.6858C919.517 20.6858 918.437 20.0808 917.69 18.8709C916.943 17.661 916.57 15.9126 916.57 13.6257C916.57 11.3521 916.943 9.6104 917.69 8.40049C918.437 7.19057 919.517 6.58561 920.93 6.58561ZM917.99 13.6257C917.99 15.2478 918.137 16.5176 918.43 17.435L922.87 8.59992C922.403 7.97502 921.756 7.66256 920.93 7.66256C920.01 7.66256 919.29 8.15451 918.77 9.1384C918.25 10.109 917.99 11.6048 917.99 13.6257ZM920.93 19.5889C921.863 19.5889 922.59 19.1036 923.11 18.133C923.63 17.1491 923.89 15.6467 923.89 13.6257C923.89 11.9106 923.723 10.581 923.39 9.63699L918.95 18.5518C919.43 19.2432 920.09 19.5889 920.93 19.5889Z" fill="url(#paint49_linear_122_130)"/>
<path d="M922.13 42.2221H925.07V43.2792H917.45V42.2221H920.85V31.0138L917.61 32.9483L917.05 32.0509L921.05 29.5778H922.13V42.2221Z" fill="url(#paint50_linear_122_130)"/>
<path d="M922.13 65.015H925.07V66.072H917.45V65.015H920.85V53.8066L917.61 55.7411L917.05 54.8437L921.05 52.3706H922.13V65.015Z" fill="url(#paint51_linear_122_130)"/>
<path d="M920.93 74.964C922.356 74.964 923.436 75.569 924.17 76.7789C924.916 77.9755 925.29 79.7173 925.29 82.0041C925.29 84.291 924.916 86.0394 924.17 87.2493C923.436 88.4593 922.356 89.0642 920.93 89.0642C919.517 89.0642 918.437 88.4593 917.69 87.2493C916.943 86.0394 916.57 84.291 916.57 82.0041C916.57 79.7306 916.943 77.9888 917.69 76.7789C918.437 75.569 919.517 74.964 920.93 74.964ZM917.99 82.0041C917.99 83.6262 918.137 84.896 918.43 85.8134L922.87 76.9783C922.403 76.3534 921.756 76.041 920.93 76.041C920.01 76.041 919.29 76.5329 918.77 77.5168C918.25 78.4874 917.99 79.9832 917.99 82.0041ZM920.93 87.9673C921.863 87.9673 922.59 87.482 923.11 86.5114C923.63 85.5275 923.89 84.0251 923.89 82.0041C923.89 80.289 923.723 78.9594 923.39 78.0154L918.95 86.9302C919.43 87.6216 920.09 87.9673 920.93 87.9673Z" fill="url(#paint52_linear_122_130)"/>
<path d="M922.13 110.601H925.07V111.658H917.45V110.601H920.85V99.3922L917.61 101.327L917.05 100.429L921.05 97.9563H922.13V110.601Z" fill="url(#paint53_linear_122_130)"/>
<path d="M920.93 120.55C922.356 120.55 923.436 121.155 924.17 122.365C924.916 123.561 925.29 125.303 925.29 127.59C925.29 129.877 924.916 131.625 924.17 132.835C923.436 134.045 922.356 134.65 920.93 134.65C919.517 134.65 918.437 134.045 917.69 132.835C916.943 131.625 916.57 129.877 916.57 127.59C916.57 125.316 916.943 123.574 917.69 122.365C918.437 121.155 919.517 120.55 920.93 120.55ZM917.99 127.59C917.99 129.212 918.137 130.482 918.43 131.399L922.87 122.564C922.403 121.939 921.756 121.627 920.93 121.627C920.01 121.627 919.29 122.119 918.77 123.102C918.25 124.073 917.99 125.569 917.99 127.59ZM920.93 133.553C921.863 133.553 922.59 133.068 923.11 132.097C923.63 131.113 923.89 129.611 923.89 127.59C923.89 125.875 923.723 124.545 923.39 123.601L918.95 132.516C919.43 133.207 920.09 133.553 920.93 133.553Z" fill="url(#paint54_linear_122_130)"/>
<path d="M920.93 143.342C922.356 143.342 923.436 143.947 924.17 145.157C924.916 146.354 925.29 148.096 925.29 150.383C925.29 152.669 924.916 154.418 924.17 155.628C923.436 156.838 922.356 157.443 920.93 157.443C919.517 157.443 918.437 156.838 917.69 155.628C916.943 154.418 916.57 152.669 916.57 150.383C916.57 148.109 916.943 146.367 917.69 145.157C918.437 143.947 919.517 143.342 920.93 143.342ZM917.99 150.383C917.99 152.005 918.137 153.274 918.43 154.192L922.87 145.357C922.403 144.732 921.756 144.419 920.93 144.419C920.01 144.419 919.29 144.911 918.77 145.895C918.25 146.866 917.99 148.362 917.99 150.383ZM920.93 156.346C921.863 156.346 922.59 155.86 923.11 154.89C923.63 153.906 923.89 152.404 923.89 150.383C923.89 148.667 923.723 147.338 923.39 146.394L918.95 155.309C919.43 156 920.09 156.346 920.93 156.346Z" fill="url(#paint55_linear_122_130)"/>
<path d="M922.13 178.979H925.07V180.036H917.45V178.979H920.85V167.771L917.61 169.705L917.05 168.808L921.05 166.335H922.13V178.979Z" fill="url(#paint56_linear_122_130)"/>
<path d="M920.93 188.928C922.356 188.928 923.436 189.533 924.17 190.743C924.916 191.94 925.29 193.681 925.29 195.968C925.29 198.255 924.916 200.003 924.17 201.213C923.436 202.423 922.356 203.028 920.93 203.028C919.517 203.028 918.437 202.423 917.69 201.213C916.943 200.003 916.57 198.255 916.57 195.968C916.57 193.695 916.943 191.953 917.69 190.743C918.437 189.533 919.517 188.928 920.93 188.928ZM917.99 195.968C917.99 197.59 918.137 198.86 918.43 199.777L922.87 190.942C922.403 190.317 921.756 190.005 920.93 190.005C920.01 190.005 919.29 190.497 918.77 191.481C918.25 192.451 917.99 193.947 917.99 195.968ZM920.93 201.931C921.863 201.931 922.59 201.446 923.11 200.475C923.63 199.492 923.89 197.989 923.89 195.968C923.89 194.253 923.723 192.923 923.39 191.979L918.95 200.894C919.43 201.586 920.09 201.931 920.93 201.931Z" fill="url(#paint57_linear_122_130)"/>
<path d="M922.13 224.565H925.07V225.622H917.45V224.565H920.85V213.356L917.61 215.291L917.05 214.393L921.05 211.92H922.13V224.565Z" fill="url(#paint58_linear_122_130)"/>
<path d="M922.13 247.357H925.07V248.414H917.45V247.357H920.85V236.149L917.61 238.084L917.05 237.186L921.05 234.713H922.13V247.357Z" fill="url(#paint59_linear_122_130)"/>
<path d="M958.07 6.58561C959.497 6.58561 960.577 7.19057 961.31 8.40049C962.057 9.59711 962.43 11.3389 962.43 13.6257C962.43 15.9126 962.057 17.661 961.31 18.8709C960.577 20.0808 959.497 20.6858 958.07 20.6858C956.657 20.6858 955.577 20.0808 954.83 18.8709C954.084 17.661 953.71 15.9126 953.71 13.6257C953.71 11.3521 954.084 9.6104 954.83 8.40049C955.577 7.19057 956.657 6.58561 958.07 6.58561ZM955.13 13.6257C955.13 15.2478 955.277 16.5176 955.57 17.435L960.01 8.59992C959.543 7.97502 958.897 7.66256 958.07 7.66256C957.15 7.66256 956.43 8.15451 955.91 9.1384C955.39 10.109 955.13 11.6048 955.13 13.6257ZM958.07 19.5889C959.003 19.5889 959.73 19.1036 960.25 18.133C960.77 17.1491 961.03 15.6467 961.03 13.6257C961.03 11.9106 960.863 10.581 960.53 9.63699L956.09 18.5518C956.57 19.2432 957.23 19.5889 958.07 19.5889Z" fill="url(#paint60_linear_122_130)"/>
<path d="M959.27 42.2221H962.21V43.2792H954.59V42.2221H957.99V31.0138L954.75 32.9483L954.19 32.0509L958.19 29.5778H959.27V42.2221Z" fill="url(#paint61_linear_122_130)"/>
<path d="M958.07 52.1712C959.497 52.1712 960.577 52.7762 961.31 53.9861C962.057 55.1827 962.43 56.9245 962.43 59.2113C962.43 61.4982 962.057 63.2466 961.31 64.4565C960.577 65.6665 959.497 66.2714 958.07 66.2714C956.657 66.2714 955.577 65.6665 954.83 64.4565C954.084 63.2466 953.71 61.4982 953.71 59.2113C953.71 56.9378 954.084 55.196 954.83 53.9861C955.577 52.7762 956.657 52.1712 958.07 52.1712ZM955.13 59.2113C955.13 60.8334 955.277 62.1032 955.57 63.0206L960.01 54.1855C959.543 53.5606 958.897 53.2482 958.07 53.2482C957.15 53.2482 956.43 53.7401 955.91 54.724C955.39 55.6946 955.13 57.1904 955.13 59.2113ZM958.07 65.1745C959.003 65.1745 959.73 64.6892 960.25 63.7186C960.77 62.7347 961.03 61.2323 961.03 59.2113C961.03 57.4962 960.863 56.1666 960.53 55.2226L956.09 64.1374C956.57 64.8288 957.23 65.1745 958.07 65.1745Z" fill="url(#paint62_linear_122_130)"/>
<path d="M958.07 74.964C959.497 74.964 960.577 75.569 961.31 76.7789C962.057 77.9755 962.43 79.7173 962.43 82.0041C962.43 84.291 962.057 86.0394 961.31 87.2493C960.577 88.4593 959.497 89.0642 958.07 89.0642C956.657 89.0642 955.577 88.4593 954.83 87.2493C954.084 86.0394 953.71 84.291 953.71 82.0041C953.71 79.7306 954.084 77.9888 954.83 76.7789C955.577 75.569 956.657 74.964 958.07 74.964ZM955.13 82.0041C955.13 83.6262 955.277 84.896 955.57 85.8134L960.01 76.9783C959.543 76.3534 958.897 76.041 958.07 76.041C957.15 76.041 956.43 76.5329 955.91 77.5168C955.39 78.4874 955.13 79.9832 955.13 82.0041ZM958.07 87.9673C959.003 87.9673 959.73 87.482 960.25 86.5114C960.77 85.5275 961.03 84.0251 961.03 82.0041C961.03 80.289 960.863 78.9594 960.53 78.0154L956.09 86.9302C956.57 87.6216 957.23 87.9673 958.07 87.9673Z" fill="url(#paint63_linear_122_130)"/>
<path d="M959.27 110.601H962.21V111.658H954.59V110.601H957.99V99.3922L954.75 101.327L954.19 100.429L958.19 97.9563H959.27V110.601Z" fill="url(#paint64_linear_122_130)"/>
<path d="M958.07 120.55C959.497 120.55 960.577 121.155 961.31 122.365C962.057 123.561 962.43 125.303 962.43 127.59C962.43 129.877 962.057 131.625 961.31 132.835C960.577 134.045 959.497 134.65 958.07 134.65C956.657 134.65 955.577 134.045 954.83 132.835C954.084 131.625 953.71 129.877 953.71 127.59C953.71 125.316 954.084 123.574 954.83 122.365C955.577 121.155 956.657 120.55 958.07 120.55ZM955.13 127.59C955.13 129.212 955.277 130.482 955.57 131.399L960.01 122.564C959.543 121.939 958.897 121.627 958.07 121.627C957.15 121.627 956.43 122.119 955.91 123.102C955.39 124.073 955.13 125.569 955.13 127.59ZM958.07 133.553C959.003 133.553 959.73 133.068 960.25 132.097C960.77 131.113 961.03 129.611 961.03 127.59C961.03 125.875 960.863 124.545 960.53 123.601L956.09 132.516C956.57 133.207 957.23 133.553 958.07 133.553Z" fill="url(#paint65_linear_122_130)"/>
<path d="M959.27 156.186H962.21V157.243H954.59V156.186H957.99V144.978L954.75 146.912L954.19 146.015L958.19 143.542H959.27V156.186Z" fill="url(#paint66_linear_122_130)"/>
<path d="M958.07 166.135C959.497 166.135 960.577 166.74 961.31 167.95C962.057 169.147 962.43 170.888 962.43 173.175C962.43 175.462 962.057 177.211 961.31 178.421C960.577 179.63 959.497 180.235 958.07 180.235C956.657 180.235 955.577 179.63 954.83 178.421C954.084 177.211 953.71 175.462 953.71 173.175C953.71 170.902 954.084 169.16 954.83 167.95C955.577 166.74 956.657 166.135 958.07 166.135ZM955.13 173.175C955.13 174.797 955.277 176.067 955.57 176.985L960.01 168.15C959.543 167.525 958.897 167.212 958.07 167.212C957.15 167.212 956.43 167.704 955.91 168.688C955.39 169.659 955.13 171.154 955.13 173.175ZM958.07 179.139C959.003 179.139 959.73 178.653 960.25 177.683C960.77 176.699 961.03 175.196 961.03 173.175C961.03 171.46 960.863 170.131 960.53 169.187L956.09 178.101C956.57 178.793 957.23 179.139 958.07 179.139Z" fill="url(#paint67_linear_122_130)"/>
<path d="M958.07 188.928C959.497 188.928 960.577 189.533 961.31 190.743C962.057 191.94 962.43 193.681 962.43 195.968C962.43 198.255 962.057 200.003 961.31 201.213C960.577 202.423 959.497 203.028 958.07 203.028C956.657 203.028 955.577 202.423 954.83 201.213C954.084 200.003 953.71 198.255 953.71 195.968C953.71 193.695 954.084 191.953 954.83 190.743C955.577 189.533 956.657 188.928 958.07 188.928ZM955.13 195.968C955.13 197.59 955.277 198.86 955.57 199.777L960.01 190.942C959.543 190.317 958.897 190.005 958.07 190.005C957.15 190.005 956.43 190.497 955.91 191.481C955.39 192.451 955.13 193.947 955.13 195.968ZM958.07 201.931C959.003 201.931 959.73 201.446 960.25 200.475C960.77 199.492 961.03 197.989 961.03 195.968C961.03 194.253 960.863 192.923 960.53 191.979L956.09 200.894C956.57 201.586 957.23 201.931 958.07 201.931Z" fill="url(#paint68_linear_122_130)"/>
<path d="M959.27 224.565H962.21V225.622H954.59V224.565H957.99V213.356L954.75 215.291L954.19 214.393L958.19 211.92H959.27V224.565Z" fill="url(#paint69_linear_122_130)"/>
<path d="M958.07 234.514C959.497 234.514 960.577 235.119 961.31 236.329C962.057 237.525 962.43 239.267 962.43 241.554C962.43 243.841 962.057 245.589 961.31 246.799C960.577 248.009 959.497 248.614 958.07 248.614C956.657 248.614 955.577 248.009 954.83 246.799C954.084 245.589 953.71 243.841 953.71 241.554C953.71 239.28 954.084 237.538 954.83 236.329C955.577 235.119 956.657 234.514 958.07 234.514ZM955.13 241.554C955.13 243.176 955.277 244.446 955.57 245.363L960.01 236.528C959.543 235.903 958.897 235.591 958.07 235.591C957.15 235.591 956.43 236.083 955.91 237.066C955.39 238.037 955.13 239.533 955.13 241.554ZM958.07 247.517C959.003 247.517 959.73 247.032 960.25 246.061C960.77 245.077 961.03 243.575 961.03 241.554C961.03 239.839 960.863 238.509 960.53 237.565L956.09 246.48C956.57 247.171 957.23 247.517 958.07 247.517Z" fill="url(#paint70_linear_122_130)"/>
<path d="M959.27 270.15H962.21V271.207H954.59V270.15H957.99V258.942L954.75 260.876L954.19 259.979L958.19 257.506H959.27V270.15Z" fill="url(#paint71_linear_122_130)"/>
<path d="M959.27 292.943H962.21V294H954.59V292.943H957.99V281.735L954.75 283.669L954.19 282.772L958.19 280.299H959.27V292.943Z" fill="url(#paint72_linear_122_130)"/>
<path d="M902.36 29.3784C903.786 29.3784 904.866 29.9834 905.599 31.1933C906.346 32.3899 906.719 34.1317 906.719 36.4185C906.719 38.7054 906.346 40.4538 905.599 41.6637C904.866 42.8736 903.786 43.4786 902.36 43.4786C900.946 43.4786 899.867 42.8736 899.12 41.6637C898.373 40.4538 898 38.7054 898 36.4185C898 34.145 898.373 32.4032 899.12 31.1933C899.867 29.9834 900.946 29.3784 902.36 29.3784ZM899.42 36.4185C899.42 38.0406 899.567 39.3104 899.86 40.2278L904.3 31.3927C903.833 30.7678 903.186 30.4554 902.36 30.4554C901.44 30.4554 900.72 30.9473 900.2 31.9312C899.68 32.9018 899.42 34.3976 899.42 36.4185ZM902.36 42.3817C903.293 42.3817 904.02 41.8964 904.54 40.9258C905.06 39.9419 905.319 38.4395 905.319 36.4185C905.319 34.7034 905.153 33.3738 904.82 32.4298L900.38 41.3446C900.86 42.036 901.52 42.3817 902.36 42.3817Z" fill="url(#paint73_linear_122_130)"/>
<path d="M902.36 52.1712C903.786 52.1712 904.866 52.7762 905.599 53.9861C906.346 55.1827 906.719 56.9245 906.719 59.2113C906.719 61.4982 906.346 63.2466 905.599 64.4565C904.866 65.6665 903.786 66.2714 902.36 66.2714C900.946 66.2714 899.867 65.6665 899.12 64.4565C898.373 63.2466 898 61.4982 898 59.2113C898 56.9378 898.373 55.196 899.12 53.9861C899.867 52.7762 900.946 52.1712 902.36 52.1712ZM899.42 59.2113C899.42 60.8334 899.567 62.1032 899.86 63.0206L904.3 54.1855C903.833 53.5606 903.186 53.2482 902.36 53.2482C901.44 53.2482 900.72 53.7401 900.2 54.724C899.68 55.6946 899.42 57.1904 899.42 59.2113ZM902.36 65.1745C903.293 65.1745 904.02 64.6892 904.54 63.7186C905.06 62.7347 905.319 61.2323 905.319 59.2113C905.319 57.4962 905.153 56.1666 904.82 55.2226L900.38 64.1374C900.86 64.8288 901.52 65.1745 902.36 65.1745Z" fill="url(#paint74_linear_122_130)"/>
<path d="M903.56 87.8078H906.499V88.8648H898.88V87.8078H902.28V76.5994L899.04 78.5339L898.48 77.6365L902.48 75.1635H903.56V87.8078Z" fill="url(#paint75_linear_122_130)"/>
<path d="M902.36 97.7568C903.786 97.7568 904.866 98.3618 905.599 99.5717C906.346 100.768 906.719 102.51 906.719 104.797C906.719 107.084 906.346 108.832 905.599 110.042C904.866 111.252 903.786 111.857 902.36 111.857C900.946 111.857 899.867 111.252 899.12 110.042C898.373 108.832 898 107.084 898 104.797C898 102.523 898.373 100.782 899.12 99.5717C899.867 98.3618 900.946 97.7568 902.36 97.7568ZM899.42 104.797C899.42 106.419 899.567 107.689 899.86 108.606L904.3 99.7711C903.833 99.1462 903.186 98.8338 902.36 98.8338C901.44 98.8338 900.72 99.3257 900.2 100.31C899.68 101.28 899.42 102.776 899.42 104.797ZM902.36 110.76C903.293 110.76 904.02 110.275 904.54 109.304C905.06 108.32 905.319 106.818 905.319 104.797C905.319 103.082 905.153 101.752 904.82 100.808L900.38 109.723C900.86 110.414 901.52 110.76 902.36 110.76Z" fill="url(#paint76_linear_122_130)"/>
<path d="M903.56 133.393H906.499V134.45H898.88V133.393H902.28V122.185L899.04 124.12L898.48 123.222L902.48 120.749H903.56V133.393Z" fill="url(#paint77_linear_122_130)"/>
<path d="M903.56 156.186H906.499V157.243H898.88V156.186H902.28V144.978L899.04 146.912L898.48 146.015L902.48 143.542H903.56V156.186Z" fill="url(#paint78_linear_122_130)"/>
<path d="M940.7 -3.36345H943.64V-2.30644H936.02V-3.36345H939.42V-14.5718L936.18 -12.6373L935.62 -13.5347L939.62 -16.0078H940.7V-3.36345Z" fill="url(#paint79_linear_122_130)"/>
<path d="M939.5 6.58561C940.927 6.58561 942.006 7.19057 942.74 8.40049C943.486 9.59711 943.86 11.3389 943.86 13.6257C943.86 15.9126 943.486 17.661 942.74 18.8709C942.006 20.0808 940.927 20.6858 939.5 20.6858C938.087 20.6858 937.007 20.0808 936.26 18.8709C935.514 17.661 935.14 15.9126 935.14 13.6257C935.14 11.3521 935.514 9.6104 936.26 8.40049C937.007 7.19057 938.087 6.58561 939.5 6.58561ZM936.56 13.6257C936.56 15.2478 936.707 16.5176 937 17.435L941.44 8.59992C940.973 7.97502 940.327 7.66256 939.5 7.66256C938.58 7.66256 937.86 8.15451 937.34 9.1384C936.82 10.109 936.56 11.6048 936.56 13.6257ZM939.5 19.5889C940.433 19.5889 941.16 19.1036 941.68 18.133C942.2 17.1491 942.46 15.6467 942.46 13.6257C942.46 11.9106 942.293 10.581 941.96 9.63699L937.52 18.5518C938 19.2432 938.66 19.5889 939.5 19.5889Z" fill="url(#paint80_linear_122_130)"/>
<path d="M940.7 42.2221H943.64V43.2792H936.02V42.2221H939.42V31.0138L936.18 32.9483L935.62 32.0509L939.62 29.5778H940.7V42.2221Z" fill="url(#paint81_linear_122_130)"/>
<path d="M940.7 65.015H943.64V66.072H936.02V65.015H939.42V53.8066L936.18 55.7411L935.62 54.8437L939.62 52.3706H940.7V65.015Z" fill="url(#paint82_linear_122_130)"/>
<path d="M939.5 74.964C940.927 74.964 942.006 75.569 942.74 76.7789C943.486 77.9755 943.86 79.7173 943.86 82.0041C943.86 84.291 943.486 86.0394 942.74 87.2493C942.006 88.4593 940.927 89.0642 939.5 89.0642C938.087 89.0642 937.007 88.4593 936.26 87.2493C935.514 86.0394 935.14 84.291 935.14 82.0041C935.14 79.7306 935.514 77.9888 936.26 76.7789C937.007 75.569 938.087 74.964 939.5 74.964ZM936.56 82.0041C936.56 83.6262 936.707 84.896 937 85.8134L941.44 76.9783C940.973 76.3534 940.327 76.041 939.5 76.041C938.58 76.041 937.86 76.5329 937.34 77.5168C936.82 78.4874 936.56 79.9832 936.56 82.0041ZM939.5 87.9673C940.433 87.9673 941.16 87.482 941.68 86.5114C942.2 85.5275 942.46 84.0251 942.46 82.0041C942.46 80.289 942.293 78.9594 941.96 78.0154L937.52 86.9302C938 87.6216 938.66 87.9673 939.5 87.9673Z" fill="url(#paint83_linear_122_130)"/>
<path d="M940.7 110.601H943.64V111.658H936.02V110.601H939.42V99.3922L936.18 101.327L935.62 100.429L939.62 97.9563H940.7V110.601Z" fill="url(#paint84_linear_122_130)"/>
<path d="M940.7 133.393H943.64V134.45H936.02V133.393H939.42V122.185L936.18 124.12L935.62 123.222L939.62 120.749H940.7V133.393Z" fill="url(#paint85_linear_122_130)"/>
<path d="M939.5 143.342C940.927 143.342 942.006 143.947 942.74 145.157C943.486 146.354 943.86 148.096 943.86 150.383C943.86 152.669 943.486 154.418 942.74 155.628C942.006 156.838 940.927 157.443 939.5 157.443C938.087 157.443 937.007 156.838 936.26 155.628C935.514 154.418 935.14 152.669 935.14 150.383C935.14 148.109 935.514 146.367 936.26 145.157C937.007 143.947 938.087 143.342 939.5 143.342ZM936.56 150.383C936.56 152.005 936.707 153.274 937 154.192L941.44 145.357C940.973 144.732 940.327 144.419 939.5 144.419C938.58 144.419 937.86 144.911 937.34 145.895C936.82 146.866 936.56 148.362 936.56 150.383ZM939.5 156.346C940.433 156.346 941.16 155.86 941.68 154.89C942.2 153.906 942.46 152.404 942.46 150.383C942.46 148.667 942.293 147.338 941.96 146.394L937.52 155.309C938 156 938.66 156.346 939.5 156.346Z" fill="url(#paint86_linear_122_130)"/>
<path d="M940.7 178.979H943.64V180.036H936.02V178.979H939.42V167.771L936.18 169.705L935.62 168.808L939.62 166.335H940.7V178.979Z" fill="url(#paint87_linear_122_130)"/>
<path d="M939.5 188.928C940.927 188.928 942.006 189.533 942.74 190.743C943.486 191.94 943.86 193.681 943.86 195.968C943.86 198.255 943.486 200.003 942.74 201.213C942.006 202.423 940.927 203.028 939.5 203.028C938.087 203.028 937.007 202.423 936.26 201.213C935.514 200.003 935.14 198.255 935.14 195.968C935.14 193.695 935.514 191.953 936.26 190.743C937.007 189.533 938.087 188.928 939.5 188.928ZM936.56 195.968C936.56 197.59 936.707 198.86 937 199.777L941.44 190.942C940.973 190.317 940.327 190.005 939.5 190.005C938.58 190.005 937.86 190.497 937.34 191.481C936.82 192.451 936.56 193.947 936.56 195.968ZM939.5 201.931C940.433 201.931 941.16 201.446 941.68 200.475C942.2 199.492 942.46 197.989 942.46 195.968C942.46 194.253 942.293 192.923 941.96 191.979L937.52 200.894C938 201.586 938.66 201.931 939.5 201.931Z" fill="url(#paint88_linear_122_130)"/>
<path d="M976.64 -16.2072C978.067 -16.2072 979.147 -15.6022 979.88 -14.3923C980.627 -13.1957 981 -11.454 981 -9.16707C981 -6.8802 980.627 -5.13179 979.88 -3.92188C979.147 -2.71196 978.067 -2.107 976.64 -2.107C975.227 -2.107 974.147 -2.71196 973.401 -3.92188C972.654 -5.13179 972.281 -6.8802 972.281 -9.16707C972.281 -11.4407 972.654 -13.1824 973.401 -14.3923C974.147 -15.6022 975.227 -16.2072 976.64 -16.2072ZM973.701 -9.16707C973.701 -7.54498 973.847 -6.27523 974.14 -5.35782L978.58 -14.1929C978.114 -14.8178 977.467 -15.1302 976.64 -15.1302C975.72 -15.1302 975 -14.6383 974.48 -13.6544C973.96 -12.6838 973.701 -11.188 973.701 -9.16707ZM976.64 -3.2039C977.574 -3.2039 978.3 -3.6892 978.82 -4.65979C979.34 -5.64368 979.6 -7.14611 979.6 -9.16707C979.6 -10.8822 979.433 -12.2118 979.1 -13.1558L974.66 -4.24098C975.14 -3.54959 975.8 -3.2039 976.64 -3.2039Z" fill="url(#paint89_linear_122_130)"/>
<path d="M977.84 19.4293H980.78V20.4864H973.161V19.4293H976.56V8.22099L973.321 10.1555L972.761 9.25806L976.76 6.78504H977.84V19.4293Z" fill="url(#paint90_linear_122_130)"/>
<path d="M977.84 42.2221H980.78V43.2792H973.161V42.2221H976.56V31.0138L973.321 32.9483L972.761 32.0509L976.76 29.5778H977.84V42.2221Z" fill="url(#paint91_linear_122_130)"/>
<path d="M976.64 52.1712C978.067 52.1712 979.147 52.7762 979.88 53.9861C980.627 55.1827 981 56.9245 981 59.2113C981 61.4982 980.627 63.2466 979.88 64.4565C979.147 65.6665 978.067 66.2714 976.64 66.2714C975.227 66.2714 974.147 65.6665 973.401 64.4565C972.654 63.2466 972.281 61.4982 972.281 59.2113C972.281 56.9378 972.654 55.196 973.401 53.9861C974.147 52.7762 975.227 52.1712 976.64 52.1712ZM973.701 59.2113C973.701 60.8334 973.847 62.1032 974.14 63.0206L978.58 54.1855C978.114 53.5606 977.467 53.2482 976.64 53.2482C975.72 53.2482 975 53.7401 974.48 54.724C973.96 55.6946 973.701 57.1904 973.701 59.2113ZM976.64 65.1745C977.574 65.1745 978.3 64.6892 978.82 63.7186C979.34 62.7347 979.6 61.2323 979.6 59.2113C979.6 57.4962 979.433 56.1666 979.1 55.2226L974.66 64.1374C975.14 64.8288 975.8 65.1745 976.64 65.1745Z" fill="url(#paint92_linear_122_130)"/>
<path d="M976.64 74.964C978.067 74.964 979.147 75.569 979.88 76.7789C980.627 77.9755 981 79.7173 981 82.0041C981 84.291 980.627 86.0394 979.88 87.2493C979.147 88.4593 978.067 89.0642 976.64 89.0642C975.227 89.0642 974.147 88.4593 973.401 87.2493C972.654 86.0394 972.281 84.291 972.281 82.0041C972.281 79.7306 972.654 77.9888 973.401 76.7789C974.147 75.569 975.227 74.964 976.64 74.964ZM973.701 82.0041C973.701 83.6262 973.847 84.896 974.14 85.8134L978.58 76.9783C978.114 76.3534 977.467 76.041 976.64 76.041C975.72 76.041 975 76.5329 974.48 77.5168C973.96 78.4874 973.701 79.9832 973.701 82.0041ZM976.64 87.9673C977.574 87.9673 978.3 87.482 978.82 86.5114C979.34 85.5275 979.6 84.0251 979.6 82.0041C979.6 80.289 979.433 78.9594 979.1 78.0154L974.66 86.9302C975.14 87.6216 975.8 87.9673 976.64 87.9673Z" fill="url(#paint93_linear_122_130)"/>
</g>
</g>
<defs>
<filter id="filter0_f_122_130" x="-557.19" y="-725.19" width="2141.38" height="1500.38" filterUnits="userSpaceOnUse" color-interpolation-filters="sRGB">
<feFlood flood-opacity="0" result="BackgroundImageFix"/>
<feBlend mode="normal" in="SourceGraphic" in2="BackgroundImageFix" result="shape"/>
<feGaussianBlur stdDeviation="200.095" result="effect1_foregroundBlur_122_130"/>
</filter>
<linearGradient id="paint0_linear_122_130" x1="53.5" y1="261" x2="53.5" y2="572.381" gradientUnits="userSpaceOnUse">
<stop stop-color="#F7DD43"/>
<stop offset="1" stop-color="#F7DD43" stop-opacity="0"/>
</linearGradient>
<linearGradient id="paint1_linear_122_130" x1="53.5" y1="261" x2="53.5" y2="572.381" gradientUnits="userSpaceOnUse">
<stop stop-color="#F7DD43"/>
<stop offset="1" stop-color="#F7DD43" stop-opacity="0"/>
</linearGradient>
<linearGradient id="paint2_linear_122_130" x1="53.5" y1="261" x2="53.5" y2="572.381" gradientUnits="userSpaceOnUse">
<stop stop-color="#F7DD43"/>
<stop offset="1" stop-color="#F7DD43" stop-opacity="0"/>
</linearGradient>
<linearGradient id="paint3_linear_122_130" x1="53.5" y1="261" x2="53.5" y2="572.381" gradientUnits="userSpaceOnUse">
<stop stop-color="#F7DD43"/>
<stop offset="1" stop-color="#F7DD43" stop-opacity="0"/>
</linearGradient>
<linearGradient id="paint4_linear_122_130" x1="53.5" y1="261" x2="53.5" y2="572.381" gradientUnits="userSpaceOnUse">
<stop stop-color="#F7DD43"/>
<stop offset="1" stop-color="#F7DD43" stop-opacity="0"/>
</linearGradient>
<linearGradient id="paint5_linear_122_130" x1="53.5" y1="261" x2="53.5" y2="572.381" gradientUnits="userSpaceOnUse">
<stop stop-color="#F7DD43"/>
<stop offset="1" stop-color="#F7DD43" stop-opacity="0"/>
</linearGradient>
<linearGradient id="paint6_linear_122_130" x1="53.5" y1="261" x2="53.5" y2="572.381" gradientUnits="userSpaceOnUse">
<stop stop-color="#F7DD43"/>
<stop offset="1" stop-color="#F7DD43" stop-opacity="0"/>
</linearGradient>
<linearGradient id="paint7_linear_122_130" x1="53.5" y1="261" x2="53.5" y2="572.381" gradientUnits="userSpaceOnUse">
<stop stop-color="#F7DD43"/>
<stop offset="1" stop-color="#F7DD43" stop-opacity="0"/>
</linearGradient>
<linearGradient id="paint8_linear_122_130" x1="53.5" y1="261" x2="53.5" y2="572.381" gradientUnits="userSpaceOnUse">
<stop stop-color="#F7DD43"/>
<stop offset="1" stop-color="#F7DD43" stop-opacity="0"/>
</linearGradient>
<linearGradient id="paint9_linear_122_130" x1="53.5" y1="261" x2="53.5" y2="572.381" gradientUnits="userSpaceOnUse">
<stop stop-color="#F7DD43"/>
<stop offset="1" stop-color="#F7DD43" stop-opacity="0"/>
</linearGradient>
<linearGradient id="paint10_linear_122_130" x1="53.5" y1="261" x2="53.5" y2="572.381" gradientUnits="userSpaceOnUse">
<stop stop-color="#F7DD43"/>
<stop offset="1" stop-color="#F7DD43" stop-opacity="0"/>
</linearGradient>
<linearGradient id="paint11_linear_122_130" x1="53.5" y1="261" x2="53.5" y2="572.381" gradientUnits="userSpaceOnUse">
<stop stop-color="#F7DD43"/>
<stop offset="1" stop-color="#F7DD43" stop-opacity="0"/>
</linearGradient>
<linearGradient id="paint12_linear_122_130" x1="53.5" y1="261" x2="53.5" y2="572.381" gradientUnits="userSpaceOnUse">
<stop stop-color="#F7DD43"/>
<stop offset="1" stop-color="#F7DD43" stop-opacity="0"/>
</linearGradient>
<linearGradient id="paint13_linear_122_130" x1="53.5" y1="261" x2="53.5" y2="572.381" gradientUnits="userSpaceOnUse">
<stop stop-color="#F7DD43"/>
<stop offset="1" stop-color="#F7DD43" stop-opacity="0"/>
</linearGradient>
<linearGradient id="paint14_linear_122_130" x1="53.5" y1="261" x2="53.5" y2="572.381" gradientUnits="userSpaceOnUse">
<stop stop-color="#F7DD43"/>
<stop offset="1" stop-color="#F7DD43" stop-opacity="0"/>
</linearGradient>
<linearGradient id="paint15_linear_122_130" x1="53.5" y1="261" x2="53.5" y2="572.381" gradientUnits="userSpaceOnUse">
<stop stop-color="#F7DD43"/>
<stop offset="1" stop-color="#F7DD43" stop-opacity="0"/>
</linearGradient>
<linearGradient id="paint16_linear_122_130" x1="53.5" y1="261" x2="53.5" y2="572.381" gradientUnits="userSpaceOnUse">
<stop stop-color="#F7DD43"/>
<stop offset="1" stop-color="#F7DD43" stop-opacity="0"/>
</linearGradient>
<linearGradient id="paint17_linear_122_130" x1="53.5" y1="261" x2="53.5" y2="572.381" gradientUnits="userSpaceOnUse">
<stop stop-color="#F7DD43"/>
<stop offset="1" stop-color="#F7DD43" stop-opacity="0"/>
</linearGradient>
<linearGradient id="paint18_linear_122_130" x1="53.5" y1="261" x2="53.5" y2="572.381" gradientUnits="userSpaceOnUse">
<stop stop-color="#F7DD43"/>
<stop offset="1" stop-color="#F7DD43" stop-opacity="0"/>
</linearGradient>
<linearGradient id="paint19_linear_122_130" x1="53.5" y1="261" x2="53.5" y2="572.381" gradientUnits="userSpaceOnUse">
<stop stop-color="#F7DD43"/>
<stop offset="1" stop-color="#F7DD43" stop-opacity="0"/>
</linearGradient>
<linearGradient id="paint20_linear_122_130" x1="53.5" y1="261" x2="53.5" y2="572.381" gradientUnits="userSpaceOnUse">
<stop stop-color="#F7DD43"/>
<stop offset="1" stop-color="#F7DD43" stop-opacity="0"/>
</linearGradient>
<linearGradient id="paint21_linear_122_130" x1="53.5" y1="261" x2="53.5" y2="572.381" gradientUnits="userSpaceOnUse">
<stop stop-color="#F7DD43"/>
<stop offset="1" stop-color="#F7DD43" stop-opacity="0"/>
</linearGradient>
<linearGradient id="paint22_linear_122_130" x1="53.5" y1="261" x2="53.5" y2="572.381" gradientUnits="userSpaceOnUse">
<stop stop-color="#F7DD43"/>
<stop offset="1" stop-color="#F7DD43" stop-opacity="0"/>
</linearGradient>
<linearGradient id="paint23_linear_122_130" x1="53.5" y1="261" x2="53.5" y2="572.381" gradientUnits="userSpaceOnUse">
<stop stop-color="#F7DD43"/>
<stop offset="1" stop-color="#F7DD43" stop-opacity="0"/>
</linearGradient>
<linearGradient id="paint24_linear_122_130" x1="53.5" y1="261" x2="53.5" y2="572.381" gradientUnits="userSpaceOnUse">
<stop stop-color="#F7DD43"/>
<stop offset="1" stop-color="#F7DD43" stop-opacity="0"/>
</linearGradient>
<linearGradient id="paint25_linear_122_130" x1="53.5" y1="261" x2="53.5" y2="572.381" gradientUnits="userSpaceOnUse">
<stop stop-color="#F7DD43"/>
<stop offset="1" stop-color="#F7DD43" stop-opacity="0"/>
</linearGradient>
<linearGradient id="paint26_linear_122_130" x1="53.5" y1="261" x2="53.5" y2="572.381" gradientUnits="userSpaceOnUse">
<stop stop-color="#F7DD43"/>
<stop offset="1" stop-color="#F7DD43" stop-opacity="0"/>
</linearGradient>
<linearGradient id="paint27_linear_122_130" x1="53.5" y1="261" x2="53.5" y2="572.381" gradientUnits="userSpaceOnUse">
<stop stop-color="#F7DD43"/>
<stop offset="1" stop-color="#F7DD43" stop-opacity="0"/>
</linearGradient>
<linearGradient id="paint28_linear_122_130" x1="53.5" y1="261" x2="53.5" y2="572.381" gradientUnits="userSpaceOnUse">
<stop stop-color="#F7DD43"/>
<stop offset="1" stop-color="#F7DD43" stop-opacity="0"/>
</linearGradient>
<linearGradient id="paint29_linear_122_130" x1="53.5" y1="261" x2="53.5" y2="572.381" gradientUnits="userSpaceOnUse">
<stop stop-color="#F7DD43"/>
<stop offset="1" stop-color="#F7DD43" stop-opacity="0"/>
</linearGradient>
<linearGradient id="paint30_linear_122_130" x1="53.5" y1="261" x2="53.5" y2="572.381" gradientUnits="userSpaceOnUse">
<stop stop-color="#F7DD43"/>
<stop offset="1" stop-color="#F7DD43" stop-opacity="0"/>
</linearGradient>
<linearGradient id="paint31_linear_122_130" x1="53.5" y1="261" x2="53.5" y2="572.381" gradientUnits="userSpaceOnUse">
<stop stop-color="#F7DD43"/>
<stop offset="1" stop-color="#F7DD43" stop-opacity="0"/>
</linearGradient>
<linearGradient id="paint32_linear_122_130" x1="53.5" y1="261" x2="53.5" y2="572.381" gradientUnits="userSpaceOnUse">
<stop stop-color="#F7DD43"/>
<stop offset="1" stop-color="#F7DD43" stop-opacity="0"/>
</linearGradient>
<linearGradient id="paint33_linear_122_130" x1="53.5" y1="261" x2="53.5" y2="572.381" gradientUnits="userSpaceOnUse">
<stop stop-color="#F7DD43"/>
<stop offset="1" stop-color="#F7DD43" stop-opacity="0"/>
</linearGradient>
<linearGradient id="paint34_linear_122_130" x1="53.5" y1="261" x2="53.5" y2="572.381" gradientUnits="userSpaceOnUse">
<stop stop-color="#F7DD43"/>
<stop offset="1" stop-color="#F7DD43" stop-opacity="0"/>
</linearGradient>
<linearGradient id="paint35_linear_122_130" x1="53.5" y1="261" x2="53.5" y2="572.381" gradientUnits="userSpaceOnUse">
<stop stop-color="#F7DD43"/>
<stop offset="1" stop-color="#F7DD43" stop-opacity="0"/>
</linearGradient>
<linearGradient id="paint36_linear_122_130" x1="53.5" y1="261" x2="53.5" y2="572.381" gradientUnits="userSpaceOnUse">
<stop stop-color="#F7DD43"/>
<stop offset="1" stop-color="#F7DD43" stop-opacity="0"/>
</linearGradient>
<linearGradient id="paint37_linear_122_130" x1="53.5" y1="261" x2="53.5" y2="572.381" gradientUnits="userSpaceOnUse">
<stop stop-color="#F7DD43"/>
<stop offset="1" stop-color="#F7DD43" stop-opacity="0"/>
</linearGradient>
<linearGradient id="paint38_linear_122_130" x1="53.5" y1="261" x2="53.5" y2="572.381" gradientUnits="userSpaceOnUse">
<stop stop-color="#F7DD43"/>
<stop offset="1" stop-color="#F7DD43" stop-opacity="0"/>
</linearGradient>
<linearGradient id="paint39_linear_122_130" x1="53.5" y1="261" x2="53.5" y2="572.381" gradientUnits="userSpaceOnUse">
<stop stop-color="#F7DD43"/>
<stop offset="1" stop-color="#F7DD43" stop-opacity="0"/>
</linearGradient>
<linearGradient id="paint40_linear_122_130" x1="53.5" y1="261" x2="53.5" y2="572.381" gradientUnits="userSpaceOnUse">
<stop stop-color="#F7DD43"/>
<stop offset="1" stop-color="#F7DD43" stop-opacity="0"/>
</linearGradient>
<linearGradient id="paint41_linear_122_130" x1="53.5" y1="261" x2="53.5" y2="572.381" gradientUnits="userSpaceOnUse">
<stop stop-color="#F7DD43"/>
<stop offset="1" stop-color="#F7DD43" stop-opacity="0"/>
</linearGradient>
<linearGradient id="paint42_linear_122_130" x1="53.5" y1="261" x2="53.5" y2="572.381" gradientUnits="userSpaceOnUse">
<stop stop-color="#F7DD43"/>
<stop offset="1" stop-color="#F7DD43" stop-opacity="0"/>
</linearGradient>
<linearGradient id="paint43_linear_122_130" x1="53.5" y1="261" x2="53.5" y2="572.381" gradientUnits="userSpaceOnUse">
<stop stop-color="#F7DD43"/>
<stop offset="1" stop-color="#F7DD43" stop-opacity="0"/>
</linearGradient>
<linearGradient id="paint44_linear_122_130" x1="53.5" y1="261" x2="53.5" y2="572.381" gradientUnits="userSpaceOnUse">
<stop stop-color="#F7DD43"/>
<stop offset="1" stop-color="#F7DD43" stop-opacity="0"/>
</linearGradient>
<linearGradient id="paint45_linear_122_130" x1="53.5" y1="261" x2="53.5" y2="572.381" gradientUnits="userSpaceOnUse">
<stop stop-color="#F7DD43"/>
<stop offset="1" stop-color="#F7DD43" stop-opacity="0"/>
</linearGradient>
<linearGradient id="paint46_linear_122_130" x1="53.5" y1="261" x2="53.5" y2="572.381" gradientUnits="userSpaceOnUse">
<stop stop-color="#F7DD43"/>
<stop offset="1" stop-color="#F7DD43" stop-opacity="0"/>
</linearGradient>
<linearGradient id="paint47_linear_122_130" x1="939.5" y1="-39" x2="939.5" y2="259.818" gradientUnits="userSpaceOnUse">
<stop stop-color="#F7DD43"/>
<stop offset="1" stop-color="#F7DD43" stop-opacity="0"/>
</linearGradient>
<linearGradient id="paint48_linear_122_130" x1="939.5" y1="-39" x2="939.5" y2="259.818" gradientUnits="userSpaceOnUse">
<stop stop-color="#F7DD43"/>
<stop offset="1" stop-color="#F7DD43" stop-opacity="0"/>
</linearGradient>
<linearGradient id="paint49_linear_122_130" x1="939.5" y1="-39" x2="939.5" y2="259.818" gradientUnits="userSpaceOnUse">
<stop stop-color="#F7DD43"/>
<stop offset="1" stop-color="#F7DD43" stop-opacity="0"/>
</linearGradient>
<linearGradient id="paint50_linear_122_130" x1="939.5" y1="-39" x2="939.5" y2="259.818" gradientUnits="userSpaceOnUse">
<stop stop-color="#F7DD43"/>
<stop offset="1" stop-color="#F7DD43" stop-opacity="0"/>
</linearGradient>
<linearGradient id="paint51_linear_122_130" x1="939.5" y1="-39" x2="939.5" y2="259.818" gradientUnits="userSpaceOnUse">
<stop stop-color="#F7DD43"/>
<stop offset="1" stop-color="#F7DD43" stop-opacity="0"/>
</linearGradient>
<linearGradient id="paint52_linear_122_130" x1="939.5" y1="-39" x2="939.5" y2="259.818" gradientUnits="userSpaceOnUse">
<stop stop-color="#F7DD43"/>
<stop offset="1" stop-color="#F7DD43" stop-opacity="0"/>
</linearGradient>
<linearGradient id="paint53_linear_122_130" x1="939.5" y1="-39" x2="939.5" y2="259.818" gradientUnits="userSpaceOnUse">
<stop stop-color="#F7DD43"/>
<stop offset="1" stop-color="#F7DD43" stop-opacity="0"/>
</linearGradient>
<linearGradient id="paint54_linear_122_130" x1="939.5" y1="-39" x2="939.5" y2="259.818" gradientUnits="userSpaceOnUse">
<stop stop-color="#F7DD43"/>
<stop offset="1" stop-color="#F7DD43" stop-opacity="0"/>
</linearGradient>
<linearGradient id="paint55_linear_122_130" x1="939.5" y1="-39" x2="939.5" y2="259.818" gradientUnits="userSpaceOnUse">
<stop stop-color="#F7DD43"/>
<stop offset="1" stop-color="#F7DD43" stop-opacity="0"/>
</linearGradient>
<linearGradient id="paint56_linear_122_130" x1="939.5" y1="-39" x2="939.5" y2="259.818" gradientUnits="userSpaceOnUse">
<stop stop-color="#F7DD43"/>
<stop offset="1" stop-color="#F7DD43" stop-opacity="0"/>
</linearGradient>
<linearGradient id="paint57_linear_122_130" x1="939.5" y1="-39" x2="939.5" y2="259.818" gradientUnits="userSpaceOnUse">
<stop stop-color="#F7DD43"/>
<stop offset="1" stop-color="#F7DD43" stop-opacity="0"/>
</linearGradient>
<linearGradient id="paint58_linear_122_130" x1="939.5" y1="-39" x2="939.5" y2="259.818" gradientUnits="userSpaceOnUse">
<stop stop-color="#F7DD43"/>
<stop offset="1" stop-color="#F7DD43" stop-opacity="0"/>
</linearGradient>
<linearGradient id="paint59_linear_122_130" x1="939.5" y1="-39" x2="939.5" y2="259.818" gradientUnits="userSpaceOnUse">
<stop stop-color="#F7DD43"/>
<stop offset="1" stop-color="#F7DD43" stop-opacity="0"/>
</linearGradient>
<linearGradient id="paint60_linear_122_130" x1="939.5" y1="-39" x2="939.5" y2="259.818" gradientUnits="userSpaceOnUse">
<stop stop-color="#F7DD43"/>
<stop offset="1" stop-color="#F7DD43" stop-opacity="0"/>
</linearGradient>
<linearGradient id="paint61_linear_122_130" x1="939.5" y1="-39" x2="939.5" y2="259.818" gradientUnits="userSpaceOnUse">
<stop stop-color="#F7DD43"/>
<stop offset="1" stop-color="#F7DD43" stop-opacity="0"/>
</linearGradient>
<linearGradient id="paint62_linear_122_130" x1="939.5" y1="-39" x2="939.5" y2="259.818" gradientUnits="userSpaceOnUse">
<stop stop-color="#F7DD43"/>
<stop offset="1" stop-color="#F7DD43" stop-opacity="0"/>
</linearGradient>
<linearGradient id="paint63_linear_122_130" x1="939.5" y1="-39" x2="939.5" y2="259.818" gradientUnits="userSpaceOnUse">
<stop stop-color="#F7DD43"/>
<stop offset="1" stop-color="#F7DD43" stop-opacity="0"/>
</linearGradient>
<linearGradient id="paint64_linear_122_130" x1="939.5" y1="-39" x2="939.5" y2="259.818" gradientUnits="userSpaceOnUse">
<stop stop-color="#F7DD43"/>
<stop offset="1" stop-color="#F7DD43" stop-opacity="0"/>
</linearGradient>
<linearGradient id="paint65_linear_122_130" x1="939.5" y1="-39" x2="939.5" y2="259.818" gradientUnits="userSpaceOnUse">
<stop stop-color="#F7DD43"/>
<stop offset="1" stop-color="#F7DD43" stop-opacity="0"/>
</linearGradient>
<linearGradient id="paint66_linear_122_130" x1="939.5" y1="-39" x2="939.5" y2="259.818" gradientUnits="userSpaceOnUse">
<stop stop-color="#F7DD43"/>
<stop offset="1" stop-color="#F7DD43" stop-opacity="0"/>
</linearGradient>
<linearGradient id="paint67_linear_122_130" x1="939.5" y1="-39" x2="939.5" y2="259.818" gradientUnits="userSpaceOnUse">
<stop stop-color="#F7DD43"/>
<stop offset="1" stop-color="#F7DD43" stop-opacity="0"/>
</linearGradient>
<linearGradient id="paint68_linear_122_130" x1="939.5" y1="-39" x2="939.5" y2="259.818" gradientUnits="userSpaceOnUse">
<stop stop-color="#F7DD43"/>
<stop offset="1" stop-color="#F7DD43" stop-opacity="0"/>
</linearGradient>
<linearGradient id="paint69_linear_122_130" x1="939.5" y1="-39" x2="939.5" y2="259.818" gradientUnits="userSpaceOnUse">
<stop stop-color="#F7DD43"/>
<stop offset="1" stop-color="#F7DD43" stop-opacity="0"/>
</linearGradient>
<linearGradient id="paint70_linear_122_130" x1="939.5" y1="-39" x2="939.5" y2="259.818" gradientUnits="userSpaceOnUse">
<stop stop-color="#F7DD43"/>
<stop offset="1" stop-color="#F7DD43" stop-opacity="0"/>
</linearGradient>
<linearGradient id="paint71_linear_122_130" x1="939.5" y1="-39" x2="939.5" y2="259.818" gradientUnits="userSpaceOnUse">
<stop stop-color="#F7DD43"/>
<stop offset="1" stop-color="#F7DD43" stop-opacity="0"/>
</linearGradient>
<linearGradient id="paint72_linear_122_130" x1="939.5" y1="-39" x2="939.5" y2="259.818" gradientUnits="userSpaceOnUse">
<stop stop-color="#F7DD43"/>
<stop offset="1" stop-color="#F7DD43" stop-opacity="0"/>
</linearGradient>
<linearGradient id="paint73_linear_122_130" x1="939.5" y1="-39" x2="939.5" y2="259.818" gradientUnits="userSpaceOnUse">
<stop stop-color="#F7DD43"/>
<stop offset="1" stop-color="#F7DD43" stop-opacity="0"/>
</linearGradient>
<linearGradient id="paint74_linear_122_130" x1="939.5" y1="-39" x2="939.5" y2="259.818" gradientUnits="userSpaceOnUse">
<stop stop-color="#F7DD43"/>
<stop offset="1" stop-color="#F7DD43" stop-opacity="0"/>
</linearGradient>
<linearGradient id="paint75_linear_122_130" x1="939.5" y1="-39" x2="939.5" y2="259.818" gradientUnits="userSpaceOnUse">
<stop stop-color="#F7DD43"/>
<stop offset="1" stop-color="#F7DD43" stop-opacity="0"/>
</linearGradient>
<linearGradient id="paint76_linear_122_130" x1="939.5" y1="-39" x2="939.5" y2="259.818" gradientUnits="userSpaceOnUse">
<stop stop-color="#F7DD43"/>
<stop offset="1" stop-color="#F7DD43" stop-opacity="0"/>
</linearGradient>
<linearGradient id="paint77_linear_122_130" x1="939.5" y1="-39" x2="939.5" y2="259.818" gradientUnits="userSpaceOnUse">
<stop stop-color="#F7DD43"/>
<stop offset="1" stop-color="#F7DD43" stop-opacity="0"/>
</linearGradient>
<linearGradient id="paint78_linear_122_130" x1="939.5" y1="-39" x2="939.5" y2="259.818" gradientUnits="userSpaceOnUse">
<stop stop-color="#F7DD43"/>
<stop offset="1" stop-color="#F7DD43" stop-opacity="0"/>
</linearGradient>
<linearGradient id="paint79_linear_122_130" x1="939.5" y1="-39" x2="939.5" y2="259.818" gradientUnits="userSpaceOnUse">
<stop stop-color="#F7DD43"/>
<stop offset="1" stop-color="#F7DD43" stop-opacity="0"/>
</linearGradient>
<linearGradient id="paint80_linear_122_130" x1="939.5" y1="-39" x2="939.5" y2="259.818" gradientUnits="userSpaceOnUse">
<stop stop-color="#F7DD43"/>
<stop offset="1" stop-color="#F7DD43" stop-opacity="0"/>
</linearGradient>
<linearGradient id="paint81_linear_122_130" x1="939.5" y1="-39" x2="939.5" y2="259.818" gradientUnits="userSpaceOnUse">
<stop stop-color="#F7DD43"/>
<stop offset="1" stop-color="#F7DD43" stop-opacity="0"/>
</linearGradient>
<linearGradient id="paint82_linear_122_130" x1="939.5" y1="-39" x2="939.5" y2="259.818" gradientUnits="userSpaceOnUse">
<stop stop-color="#F7DD43"/>
<stop offset="1" stop-color="#F7DD43" stop-opacity="0"/>
</linearGradient>
<linearGradient id="paint83_linear_122_130" x1="939.5" y1="-39" x2="939.5" y2="259.818" gradientUnits="userSpaceOnUse">
<stop stop-color="#F7DD43"/>
<stop offset="1" stop-color="#F7DD43" stop-opacity="0"/>
</linearGradient>
<linearGradient id="paint84_linear_122_130" x1="939.5" y1="-39" x2="939.5" y2="259.818" gradientUnits="userSpaceOnUse">
<stop stop-color="#F7DD43"/>
<stop offset="1" stop-color="#F7DD43" stop-opacity="0"/>
</linearGradient>
<linearGradient id="paint85_linear_122_130" x1="939.5" y1="-39" x2="939.5" y2="259.818" gradientUnits="userSpaceOnUse">
<stop stop-color="#F7DD43"/>
<stop offset="1" stop-color="#F7DD43" stop-opacity="0"/>
</linearGradient>
<linearGradient id="paint86_linear_122_130" x1="939.5" y1="-39" x2="939.5" y2="259.818" gradientUnits="userSpaceOnUse">
<stop stop-color="#F7DD43"/>
<stop offset="1" stop-color="#F7DD43" stop-opacity="0"/>
</linearGradient>
<linearGradient id="paint87_linear_122_130" x1="939.5" y1="-39" x2="939.5" y2="259.818" gradientUnits="userSpaceOnUse">
<stop stop-color="#F7DD43"/>
<stop offset="1" stop-color="#F7DD43" stop-opacity="0"/>
</linearGradient>
<linearGradient id="paint88_linear_122_130" x1="939.5" y1="-39" x2="939.5" y2="259.818" gradientUnits="userSpaceOnUse">
<stop stop-color="#F7DD43"/>
<stop offset="1" stop-color="#F7DD43" stop-opacity="0"/>
</linearGradient>
<linearGradient id="paint89_linear_122_130" x1="939.5" y1="-39" x2="939.5" y2="259.818" gradientUnits="userSpaceOnUse">
<stop stop-color="#F7DD43"/>
<stop offset="1" stop-color="#F7DD43" stop-opacity="0"/>
</linearGradient>
<linearGradient id="paint90_linear_122_130" x1="939.5" y1="-39" x2="939.5" y2="259.818" gradientUnits="userSpaceOnUse">
<stop stop-color="#F7DD43"/>
<stop offset="1" stop-color="#F7DD43" stop-opacity="0"/>
</linearGradient>
<linearGradient id="paint91_linear_122_130" x1="939.5" y1="-39" x2="939.5" y2="259.818" gradientUnits="userSpaceOnUse">
<stop stop-color="#F7DD43"/>
<stop offset="1" stop-color="#F7DD43" stop-opacity="0"/>
</linearGradient>
<linearGradient id="paint92_linear_122_130" x1="939.5" y1="-39" x2="939.5" y2="259.818" gradientUnits="userSpaceOnUse">
<stop stop-color="#F7DD43"/>
<stop offset="1" stop-color="#F7DD43" stop-opacity="0"/>
</linearGradient>
<linearGradient id="paint93_linear_122_130" x1="939.5" y1="-39" x2="939.5" y2="259.818" gradientUnits="userSpaceOnUse">
<stop stop-color="#F7DD43"/>
<stop offset="1" stop-color="#F7DD43" stop-opacity="0"/>
</linearGradient>
<clipPath id="clip0_122_130">
<rect width="1024" height="753" fill="white"/>
</clipPath>
</defs>
</svg>
